<mxfile host="app.diagrams.net" modified="2023-06-18T17:55:07.364Z" agent="Mozilla/5.0 (Windows NT 10.0; Win64; x64) AppleWebKit/537.36 (KHTML, like Gecko) Chrome/114.0.0.0 Safari/537.36" etag="nWW_o60oiLY4yN3Wso3F" version="21.4.0" type="device">
  <diagram name="Page-1" id="BXRBHZn7yLMNFsL2Z0cU">
    <mxGraphModel dx="2017" dy="1710" grid="0" gridSize="10" guides="1" tooltips="1" connect="1" arrows="1" fold="1" page="1" pageScale="1" pageWidth="850" pageHeight="1100" math="0" shadow="0">
      <root>
        <mxCell id="0" />
        <mxCell id="1" parent="0" />
        <mxCell id="weyOsAuUE3mkszvAtukZ-1" value="Camera" style="swimlane;fontStyle=3;align=center;verticalAlign=top;childLayout=stackLayout;horizontal=1;startSize=26;horizontalStack=0;resizeParent=1;resizeLast=0;collapsible=1;marginBottom=0;rounded=0;shadow=0;strokeWidth=2;fontSize=14;" vertex="1" parent="1">
          <mxGeometry x="-760" y="-1010" width="220" height="134" as="geometry">
            <mxRectangle x="230" y="140" width="160" height="26" as="alternateBounds" />
          </mxGeometry>
        </mxCell>
        <mxCell id="weyOsAuUE3mkszvAtukZ-2" value="." style="text;align=left;verticalAlign=top;spacingLeft=4;spacingRight=4;overflow=hidden;rotatable=0;points=[[0,0.5],[1,0.5]];portConstraint=eastwest;strokeWidth=2;fontSize=13;" vertex="1" parent="weyOsAuUE3mkszvAtukZ-1">
          <mxGeometry y="26" width="220" height="47" as="geometry" />
        </mxCell>
        <mxCell id="weyOsAuUE3mkszvAtukZ-8" value="" style="line;html=1;strokeWidth=2;align=left;verticalAlign=middle;spacingTop=-1;spacingLeft=3;spacingRight=3;rotatable=0;labelPosition=right;points=[];portConstraint=eastwest;fontSize=13;" vertex="1" parent="weyOsAuUE3mkszvAtukZ-1">
          <mxGeometry y="73" width="220" height="10" as="geometry" />
        </mxCell>
        <mxCell id="weyOsAuUE3mkszvAtukZ-9" value="+captureinput()" style="text;align=left;verticalAlign=top;spacingLeft=4;spacingRight=4;overflow=hidden;rotatable=0;points=[[0,0.5],[1,0.5]];portConstraint=eastwest;strokeWidth=2;fontSize=13;" vertex="1" parent="weyOsAuUE3mkszvAtukZ-1">
          <mxGeometry y="83" width="220" height="26" as="geometry" />
        </mxCell>
        <mxCell id="weyOsAuUE3mkszvAtukZ-11" value="NeuralNet" style="swimlane;fontStyle=1;align=center;verticalAlign=top;childLayout=stackLayout;horizontal=1;startSize=26;horizontalStack=0;resizeParent=1;resizeLast=0;collapsible=1;marginBottom=0;rounded=0;shadow=0;strokeWidth=2;fontSize=14;" vertex="1" parent="1">
          <mxGeometry x="-520" y="-717" width="190" height="220" as="geometry">
            <mxRectangle x="130" y="380" width="160" height="26" as="alternateBounds" />
          </mxGeometry>
        </mxCell>
        <mxCell id="weyOsAuUE3mkszvAtukZ-12" value="+imageFrame :Image" style="text;align=left;verticalAlign=top;spacingLeft=4;spacingRight=4;overflow=hidden;rotatable=0;points=[[0,0.5],[1,0.5]];portConstraint=eastwest;strokeWidth=2;fontSize=13;" vertex="1" parent="weyOsAuUE3mkszvAtukZ-11">
          <mxGeometry y="26" width="190" height="26" as="geometry" />
        </mxCell>
        <mxCell id="weyOsAuUE3mkszvAtukZ-15" value="" style="line;html=1;strokeWidth=2;align=left;verticalAlign=middle;spacingTop=-1;spacingLeft=3;spacingRight=3;rotatable=0;labelPosition=right;points=[];portConstraint=eastwest;fontSize=13;" vertex="1" parent="weyOsAuUE3mkszvAtukZ-11">
          <mxGeometry y="52" width="190" height="8" as="geometry" />
        </mxCell>
        <mxCell id="weyOsAuUE3mkszvAtukZ-16" value="-predictLabel()" style="text;align=left;verticalAlign=top;spacingLeft=4;spacingRight=4;overflow=hidden;rotatable=0;points=[[0,0.5],[1,0.5]];portConstraint=eastwest;strokeWidth=2;fontSize=13;" vertex="1" parent="weyOsAuUE3mkszvAtukZ-11">
          <mxGeometry y="60" width="190" height="26" as="geometry" />
        </mxCell>
        <mxCell id="weyOsAuUE3mkszvAtukZ-18" value="OpenCV" style="swimlane;fontStyle=1;align=center;verticalAlign=top;childLayout=stackLayout;horizontal=1;startSize=30;horizontalStack=0;resizeParent=1;resizeLast=0;collapsible=1;marginBottom=0;rounded=0;shadow=0;strokeWidth=2;fontSize=14;" vertex="1" parent="1">
          <mxGeometry x="-288" y="-1010" width="190" height="155" as="geometry">
            <mxRectangle x="520" y="430" width="170" height="26" as="alternateBounds" />
          </mxGeometry>
        </mxCell>
        <mxCell id="weyOsAuUE3mkszvAtukZ-19" value="+videoStream :Binary" style="text;align=left;verticalAlign=top;spacingLeft=4;spacingRight=4;overflow=hidden;rotatable=0;points=[[0,0.5],[1,0.5]];portConstraint=eastwest;strokeWidth=2;fontSize=13;" vertex="1" parent="weyOsAuUE3mkszvAtukZ-18">
          <mxGeometry y="30" width="190" height="26" as="geometry" />
        </mxCell>
        <mxCell id="weyOsAuUE3mkszvAtukZ-22" value="" style="line;html=1;strokeWidth=2;align=left;verticalAlign=middle;spacingTop=-1;spacingLeft=3;spacingRight=3;rotatable=0;labelPosition=right;points=[];portConstraint=eastwest;fontSize=13;" vertex="1" parent="weyOsAuUE3mkszvAtukZ-18">
          <mxGeometry y="56" width="190" height="8" as="geometry" />
        </mxCell>
        <mxCell id="weyOsAuUE3mkszvAtukZ-23" value="&amp;nbsp;-transformtoFrames()" style="text;html=1;align=left;verticalAlign=middle;resizable=0;points=[];autosize=1;strokeColor=none;fillColor=none;strokeWidth=2;fontSize=13;" vertex="1" parent="weyOsAuUE3mkszvAtukZ-18">
          <mxGeometry y="64" width="190" height="28" as="geometry" />
        </mxCell>
        <mxCell id="weyOsAuUE3mkszvAtukZ-24" value="&amp;nbsp;-segmentation()" style="text;html=1;align=left;verticalAlign=middle;resizable=0;points=[];autosize=1;strokeColor=none;fillColor=none;strokeWidth=2;fontSize=13;" vertex="1" parent="weyOsAuUE3mkszvAtukZ-18">
          <mxGeometry y="92" width="190" height="28" as="geometry" />
        </mxCell>
        <mxCell id="weyOsAuUE3mkszvAtukZ-49" value="&amp;nbsp;-displayLabel()" style="text;html=1;align=left;verticalAlign=middle;resizable=0;points=[];autosize=1;strokeColor=none;fillColor=none;strokeWidth=2;fontSize=13;" vertex="1" parent="weyOsAuUE3mkszvAtukZ-18">
          <mxGeometry y="120" width="190" height="28" as="geometry" />
        </mxCell>
        <mxCell id="weyOsAuUE3mkszvAtukZ-35" value="" style="endArrow=none;html=1;rounded=0;strokeWidth=2;fontSize=13;entryX=0.989;entryY=1.092;entryDx=0;entryDy=0;entryPerimeter=0;exitX=0.97;exitY=-0.048;exitDx=0;exitDy=0;exitPerimeter=0;" edge="1" parent="1" target="weyOsAuUE3mkszvAtukZ-2">
          <mxGeometry width="50" height="50" relative="1" as="geometry">
            <mxPoint x="-288.89999999999986" y="-933.44" as="sourcePoint" />
            <mxPoint x="-468" y="-937" as="targetPoint" />
            <Array as="points" />
          </mxGeometry>
        </mxCell>
        <mxCell id="weyOsAuUE3mkszvAtukZ-37" value="1" style="text;html=1;align=center;verticalAlign=middle;resizable=0;points=[];autosize=1;strokeColor=none;fillColor=none;strokeWidth=2;fontSize=13;" vertex="1" parent="1">
          <mxGeometry x="-540" y="-962" width="25" height="28" as="geometry" />
        </mxCell>
        <mxCell id="weyOsAuUE3mkszvAtukZ-41" value="has" style="text;html=1;align=center;verticalAlign=middle;resizable=0;points=[];autosize=1;strokeColor=none;fillColor=none;fontSize=14;" vertex="1" parent="1">
          <mxGeometry x="-303" y="-800" width="50" height="30" as="geometry" />
        </mxCell>
        <mxCell id="weyOsAuUE3mkszvAtukZ-42" value="has" style="text;html=1;align=center;verticalAlign=middle;resizable=0;points=[];autosize=1;strokeColor=none;fillColor=none;fontSize=14;" vertex="1" parent="1">
          <mxGeometry x="-450" y="-932" width="50" height="30" as="geometry" />
        </mxCell>
        <mxCell id="weyOsAuUE3mkszvAtukZ-43" value="" style="endArrow=none;html=1;rounded=0;strokeWidth=2;fontSize=14;exitX=0.5;exitY=0;exitDx=0;exitDy=0;entryX=0.5;entryY=1;entryDx=0;entryDy=0;" edge="1" parent="1" source="weyOsAuUE3mkszvAtukZ-11" target="weyOsAuUE3mkszvAtukZ-18">
          <mxGeometry width="50" height="50" relative="1" as="geometry">
            <mxPoint x="-460" y="-610" as="sourcePoint" />
            <mxPoint x="-315.22000000000025" y="-490.61400000000003" as="targetPoint" />
          </mxGeometry>
        </mxCell>
        <mxCell id="weyOsAuUE3mkszvAtukZ-44" value="m" style="text;html=1;align=center;verticalAlign=middle;resizable=0;points=[];autosize=1;strokeColor=none;fillColor=none;fontSize=14;" vertex="1" parent="1">
          <mxGeometry x="-321" y="-963" width="40" height="30" as="geometry" />
        </mxCell>
        <mxCell id="weyOsAuUE3mkszvAtukZ-45" value="m" style="text;html=1;align=center;verticalAlign=middle;resizable=0;points=[];autosize=1;strokeColor=none;fillColor=none;fontSize=14;" vertex="1" parent="1">
          <mxGeometry x="-263" y="-857" width="40" height="30" as="geometry" />
        </mxCell>
        <mxCell id="weyOsAuUE3mkszvAtukZ-46" value="&lt;b&gt;&lt;u&gt;&lt;font style=&quot;font-size: 19px;&quot;&gt;Class Diagram of Sign Language To Text &amp;amp; Voice Conversion&lt;/font&gt;&lt;/u&gt;&lt;/b&gt;" style="text;html=1;align=center;verticalAlign=middle;resizable=0;points=[];autosize=1;strokeColor=none;fillColor=none;fontSize=14;" vertex="1" parent="1">
          <mxGeometry x="-709" y="-464" width="568" height="35" as="geometry" />
        </mxCell>
        <mxCell id="weyOsAuUE3mkszvAtukZ-50" value="m" style="text;html=1;align=center;verticalAlign=middle;resizable=0;points=[];autosize=1;strokeColor=none;fillColor=none;fontSize=14;" vertex="1" parent="1">
          <mxGeometry x="-445" y="-751" width="40" height="30" as="geometry" />
        </mxCell>
      </root>
    </mxGraphModel>
  </diagram>
</mxfile>
